<svg width="153" height="33" viewBox="0 0 153 33" fill="none" xmlns="http://www.w3.org/2000/svg">
<path d="M0.32 8.36V4H19.84V8.36H12.44V32H7.68V8.36H0.32ZM25.1931 13.6V32H20.9131V13.6H25.1931ZM30.6731 18.2C30.2731 17.88 29.8998 17.64 29.5531 17.48C29.2065 17.32 28.7665 17.24 28.2331 17.24C27.5131 17.24 26.9265 17.4267 26.4731 17.8C26.0198 18.1733 25.6865 18.6933 25.4731 19.36C25.2865 20 25.1931 20.76 25.1931 21.64L23.7531 20.8C23.7531 19.3333 24.0198 18.04 24.5531 16.92C25.1131 15.7733 25.8198 14.8667 26.6731 14.2C27.5531 13.5333 28.4598 13.2 29.3931 13.2C30.0598 13.2 30.6865 13.3067 31.2731 13.52C31.8598 13.7067 32.3531 14.0533 32.7531 14.56L30.6731 18.2ZM39.6378 26.28C39.6378 26.8933 39.7845 27.4267 40.0778 27.88C40.3711 28.3067 40.7711 28.6267 41.2778 28.84C41.8111 29.0533 42.4111 29.16 43.0778 29.16C43.9311 29.16 44.7045 28.9867 45.3978 28.64C46.1178 28.2933 46.6911 27.7867 47.1178 27.12C47.5711 26.4267 47.7978 25.6267 47.7978 24.72L48.4378 27.12C48.4378 28.2933 48.0911 29.28 47.3978 30.08C46.7311 30.8533 45.8778 31.44 44.8378 31.84C43.8245 32.2133 42.7845 32.4 41.7178 32.4C40.5711 32.4 39.5045 32.1733 38.5178 31.72C37.5311 31.2667 36.7445 30.6 36.1578 29.72C35.5711 28.84 35.2778 27.7733 35.2778 26.52C35.2778 24.7333 35.9045 23.32 37.1578 22.28C38.4111 21.2133 40.1845 20.68 42.4778 20.68C43.7045 20.68 44.7578 20.8133 45.6378 21.08C46.5445 21.3467 47.2911 21.6667 47.8778 22.04C48.4645 22.3867 48.8778 22.7067 49.1178 23V25.2C48.2911 24.6133 47.4111 24.1867 46.4778 23.92C45.5445 23.6533 44.5578 23.52 43.5178 23.52C42.6111 23.52 41.8778 23.64 41.3178 23.88C40.7578 24.0933 40.3311 24.4 40.0378 24.8C39.7711 25.2 39.6378 25.6933 39.6378 26.28ZM38.2778 18.4L36.5178 15.36C37.3445 14.8533 38.4111 14.36 39.7178 13.88C41.0511 13.4 42.5711 13.16 44.2778 13.16C45.7978 13.16 47.1311 13.3867 48.2778 13.84C49.4511 14.2933 50.3711 14.9467 51.0378 15.8C51.7045 16.6267 52.0378 17.6533 52.0378 18.88V32H47.7978V19.72C47.7978 19.1333 47.6911 18.6533 47.4778 18.28C47.2911 17.9067 47.0245 17.6 46.6778 17.36C46.3311 17.12 45.9178 16.9467 45.4378 16.84C44.9578 16.7333 44.4378 16.68 43.8778 16.68C43.0245 16.68 42.2111 16.7867 41.4378 17C40.6911 17.1867 40.0378 17.4267 39.4778 17.72C38.9445 17.9867 38.5445 18.2133 38.2778 18.4ZM61.1541 22.8C61.1541 23.9733 61.4074 25 61.9141 25.88C62.4207 26.7333 63.1007 27.4133 63.9541 27.92C64.8341 28.4267 65.8074 28.68 66.8741 28.68C67.7541 28.68 68.5941 28.5467 69.3941 28.28C70.1941 28.0133 70.9007 27.64 71.5141 27.16C72.1274 26.68 72.5807 26.1467 72.8741 25.56V30.32C72.2341 30.96 71.3674 31.4667 70.2741 31.84C69.1807 32.2133 67.9807 32.4 66.6741 32.4C64.7807 32.4 63.0741 32 61.5541 31.2C60.0607 30.3733 58.8741 29.24 57.9941 27.8C57.1407 26.3333 56.7141 24.6667 56.7141 22.8C56.7141 20.9067 57.1407 19.24 57.9941 17.8C58.8741 16.36 60.0607 15.24 61.5541 14.44C63.0741 13.6133 64.7807 13.2 66.6741 13.2C67.9807 13.2 69.1807 13.3867 70.2741 13.76C71.3674 14.1333 72.2341 14.64 72.8741 15.28V20.04C72.5807 19.4267 72.1141 18.8933 71.4741 18.44C70.8607 17.96 70.1541 17.5867 69.3541 17.32C68.5541 17.0533 67.7274 16.92 66.8741 16.92C65.8074 16.92 64.8341 17.1733 63.9541 17.68C63.1007 18.1867 62.4207 18.88 61.9141 19.76C61.4074 20.64 61.1541 21.6533 61.1541 22.8ZM78.6891 0.799999H82.9291V32H78.6891V0.799999ZM89.6891 13.6H94.9691L87.0491 21.2L95.7691 32H90.5291L81.7291 21.2L89.6891 13.6ZM107.268 32.4C105.401 32.4 103.748 32 102.308 31.2C100.894 30.4 99.8011 29.28 99.0278 27.84C98.2545 26.4 97.8678 24.72 97.8678 22.8C97.8678 20.8533 98.2545 19.16 99.0278 17.72C99.8278 16.28 100.948 15.1733 102.388 14.4C103.828 13.6 105.521 13.2 107.468 13.2C109.414 13.2 111.068 13.5733 112.428 14.32C113.788 15.0667 114.828 16.1467 115.548 17.56C116.294 18.9467 116.668 20.6267 116.668 22.6C116.668 22.8133 116.654 23.04 116.628 23.28C116.628 23.52 116.614 23.6933 116.588 23.8H100.428V20.84H112.908L111.588 22.68C111.668 22.52 111.748 22.3067 111.828 22.04C111.934 21.7467 111.988 21.5067 111.988 21.32C111.988 20.3333 111.788 19.48 111.388 18.76C111.014 18.04 110.481 17.48 109.788 17.08C109.121 16.68 108.334 16.48 107.428 16.48C106.334 16.48 105.401 16.72 104.628 17.2C103.854 17.68 103.268 18.3733 102.868 19.28C102.468 20.1867 102.254 21.3067 102.228 22.64C102.228 23.9733 102.428 25.1067 102.828 26.04C103.228 26.9467 103.814 27.64 104.588 28.12C105.388 28.6 106.348 28.84 107.468 28.84C108.641 28.84 109.668 28.6 110.548 28.12C111.428 27.64 112.161 26.9067 112.748 25.92L116.468 27.44C115.508 29.0933 114.268 30.3333 112.748 31.16C111.228 31.9867 109.401 32.4 107.268 32.4ZM129.991 32.4C128.125 32.4 126.471 32 125.031 31.2C123.618 30.4 122.525 29.28 121.751 27.84C120.978 26.4 120.591 24.72 120.591 22.8C120.591 20.8533 120.978 19.16 121.751 17.72C122.551 16.28 123.671 15.1733 125.111 14.4C126.551 13.6 128.245 13.2 130.191 13.2C132.138 13.2 133.791 13.5733 135.151 14.32C136.511 15.0667 137.551 16.1467 138.271 17.56C139.018 18.9467 139.391 20.6267 139.391 22.6C139.391 22.8133 139.378 23.04 139.351 23.28C139.351 23.52 139.338 23.6933 139.311 23.8H123.151V20.84H135.631L134.311 22.68C134.391 22.52 134.471 22.3067 134.551 22.04C134.658 21.7467 134.711 21.5067 134.711 21.32C134.711 20.3333 134.511 19.48 134.111 18.76C133.738 18.04 133.205 17.48 132.511 17.08C131.845 16.68 131.058 16.48 130.151 16.48C129.058 16.48 128.125 16.72 127.351 17.2C126.578 17.68 125.991 18.3733 125.591 19.28C125.191 20.1867 124.978 21.3067 124.951 22.64C124.951 23.9733 125.151 25.1067 125.551 26.04C125.951 26.9467 126.538 27.64 127.311 28.12C128.111 28.6 129.071 28.84 130.191 28.84C131.365 28.84 132.391 28.6 133.271 28.12C134.151 27.64 134.885 26.9067 135.471 25.92L139.191 27.44C138.231 29.0933 136.991 30.3333 135.471 31.16C133.951 31.9867 132.125 32.4 129.991 32.4ZM142.155 13.6H152.595V17.4H142.155V13.6ZM145.235 7.2H149.515V32H145.235V7.2Z" fill="black"/>
</svg>
